# xmcd
#
# Track frame offsets:
#	150
#	16360
#	32063
#	45038
#	60093
#	75563
#	95627
#	111480
#	125312
#	138369
#	152677
#	165891
#
# Disc length: 2362 seconds
#
# Revision: 0
# Processed by: cddbd v1.5.2PL0 Copyright (c) Steve Scherf et al.
# Submitted via: FairStars CD Ripper 1.52
#
DISCID=8209380c
DTITLE=Austin Church - Dreamin' Backwards
DYEAR=2002
DGENRE=Country
TTITLE0=Shorty
TTITLE1=Dreamin' Backwards
TTITLE2=Semi-Retired
TTITLE3=Sheik of Sh-Boom
TTITLE4=(Who Said) The World's Fair
TTITLE5=Fixin' To
TTITLE6=Honlytonk Romance
TTITLE7=Natural Love
TTITLE8=Brand New Country Star
TTITLE9=Good News, Bad News
TTITLE10=Life's Mystery
TTITLE11=Country Side of Heaven
EXTD=
EXTT0=
EXTT1=
EXTT2=
EXTT3=
EXTT4=
EXTT5=
EXTT6=
EXTT7=
EXTT8=
EXTT9=
EXTT10=
EXTT11=
PLAYORDER=
